<svg width="16" height="18" viewBox="0 0 16 18" fill="none" xmlns="http://www.w3.org/2000/svg">
<path d="M0.471405 12.2242C1.03665 13.8409 2.03522 15.2327 3.336 16.2168C4.63678 17.2008 6.17897 17.7313 7.76006 17.7383C9.34115 17.7454 10.8872 17.2289 12.1953 16.2565C13.5034 15.2841 14.5124 13.9013 15.0897 12.2897C12.7717 13.9396 10.3437 15.3968 7.82641 16.6487C5.27573 15.3804 2.81696 13.9013 0.471405 12.2242Z" fill="#579944"/>
<path d="M7.79076 0.798305C6.19911 0.786786 4.64277 1.31155 3.33277 2.3014C2.02278 3.29125 1.02253 4.69831 0.467743 6.33171C2.81547 4.65271 5.27668 3.17208 7.82998 1.90272C10.35 3.15549 12.7803 4.6141 15.1004 6.26619C14.5363 4.64768 13.5339 3.25659 12.2275 2.27933C10.921 1.30206 9.37295 0.785303 7.79076 0.798305Z" fill="#579944"/>
<path d="M0.493312 6.4446C-0.0943353 8.28039 -0.0914286 10.2809 0.501559 12.1147C2.83222 13.8307 5.2805 15.3469 7.82457 16.6498C10.3359 15.3641 12.754 13.8707 15.0579 12.1824C15.6782 10.3077 15.6807 8.25457 15.0651 6.37798C12.7592 4.6876 10.3386 3.19261 7.82457 1.90607C5.27757 3.20965 2.82652 4.72701 0.493312 6.4446ZM12.9064 9.27682C12.9066 9.52846 12.8904 9.7798 12.8579 10.0289C12.8209 10.316 12.7598 10.5988 12.6753 10.8736C12.418 11.6939 11.971 12.4273 11.3778 13.0023C10.3962 13.9492 9.13285 14.4717 7.82457 14.4717C6.5163 14.4717 5.25294 13.9492 4.27135 13.0023C3.78565 12.5392 3.39769 11.9661 3.1343 11.3227C2.8709 10.6792 2.73835 9.98076 2.74588 9.27568C2.74387 8.82585 2.79663 8.37774 2.90269 7.94315C2.97032 7.66641 3.06146 7.39722 3.17496 7.1391C3.44339 6.53929 3.81575 6.00234 4.27135 5.55813C5.25304 4.6114 6.51636 4.0891 7.82457 4.0891C9.13279 4.0891 10.3961 4.6114 11.3778 5.55813C11.8631 6.02005 12.251 6.59173 12.5149 7.23374C12.7788 7.87575 12.9124 8.57281 12.9064 9.27682Z" fill="#F4DD34"/>
<path d="M4.07119 5.57737C3.59906 6.00361 3.20856 6.52785 2.92218 7.11995C6.5123 6.55763 10.1599 7.57248 13.0693 9.94314C13.1032 9.70024 13.1201 9.45481 13.1198 9.20908C13.1209 8.51103 12.9772 7.82181 12.6998 7.19332C12.4223 6.56484 12.0183 6.01348 11.518 5.58074C10.462 4.65266 9.14827 4.14682 7.79408 4.14682C6.4399 4.14682 5.12626 4.65266 4.07018 5.58074L4.07119 5.57737ZM9.42115 7.49711L9.46963 7.34241L9.52427 7.49825H9.69034L9.55833 7.59423L9.61095 7.74783L9.47479 7.65182L9.3407 7.74669L9.39125 7.59423L9.25301 7.49711H9.42115Z" fill="#182B73"/>
<path d="M2.73 8.04033C2.50107 8.92498 2.51347 9.86365 2.76563 10.7407C3.0178 11.6177 3.49877 12.3949 4.14927 12.9764C5.19114 13.9037 6.49284 14.4099 7.83552 14.4099C9.1782 14.4099 10.48 13.9037 11.5218 12.9764C12.1304 12.4264 12.5951 11.7099 12.8688 10.8997C11.4584 9.6675 9.82604 8.77579 8.07871 8.28302C6.33138 7.79024 4.50858 7.70752 2.73 8.04033ZM3.45717 11.2125L3.34782 11.1323L3.2447 11.2091L3.28078 11.0815L3.17766 11.0024H3.30866L3.34681 10.8748L3.39012 11.0024H3.52214L3.41902 11.0792L3.45717 11.2125ZM3.63356 8.58691L3.50463 8.49093L3.37464 8.58805L3.42626 8.43334L3.29733 8.33733H3.45818L3.50772 8.18263L3.55519 8.33733H3.71811L3.58509 8.43445L3.63356 8.58691ZM4.04609 10.6309L4.09872 10.7834L3.96671 10.6874L3.8357 10.7811L3.88518 10.6298L3.75009 10.5326H3.91716L3.96564 10.3813L4.01518 10.5338H4.17917L4.04609 10.6309ZM4.53397 10.3757L4.47209 10.3305L4.41121 10.3757L4.43394 10.3023L4.36998 10.256H4.44836L4.47209 10.1837L4.49475 10.2571H4.57319L4.51024 10.3034L4.53397 10.3757ZM7.87474 13.4372L7.83143 13.4089L7.78805 13.4372L7.80461 13.3897L7.75815 13.3603H7.81487L7.83143 13.3141L7.84792 13.3603H7.90156L7.85718 13.3897L7.87474 13.4372ZM10.5255 13.3141L10.4388 13.2565L10.3481 13.3163L10.3852 13.2192L10.3016 13.1616H10.4048L10.4419 13.0645L10.4718 13.1605H10.575L10.4842 13.2203L10.5255 13.3141ZM12.2304 11.1684L12.2634 11.0668L12.2933 11.1673H12.3964L12.3108 11.2339L12.3407 11.3333L12.2552 11.2734L12.1685 11.3367L12.2035 11.2362L12.12 11.1707L12.2304 11.1684ZM11.921 11.5704L11.8106 11.6495L11.8467 11.776L11.7436 11.7003L11.6322 11.7794L11.6786 11.6529L11.5755 11.5761H11.7085L11.7529 11.4485L11.7931 11.575L11.921 11.5704ZM11.496 11.1052L11.5487 10.9539L11.595 11.1041H11.756L11.6249 11.2035L11.6713 11.357L11.5424 11.261L11.4114 11.3593L11.463 11.2035L11.3341 11.1074L11.496 11.1052ZM11.3774 11.986L11.4217 11.8596L11.461 11.9849H11.595L11.4836 12.0628L11.5198 12.1871L11.4166 12.1125L11.3042 12.1904L11.3506 12.0651L11.2474 11.9894L11.3774 11.986ZM10.9648 12.2593L11.002 12.1588L11.0329 12.2582H11.1361L11.0453 12.3203L11.0752 12.4185L10.9916 12.3575L10.904 12.4208L10.938 12.3203L10.8524 12.2616L10.9648 12.2593ZM10.4265 12.1701L10.4605 12.0696L10.4924 12.169H10.6039L10.5131 12.2311L10.5461 12.3305L10.4553 12.2706L10.3666 12.3327L10.4027 12.2322L10.3171 12.1724L10.4265 12.1701ZM10.4265 12.6489L10.4739 12.5247L10.5131 12.6478H10.6482L10.5357 12.7268L10.575 12.851L10.4646 12.7765L10.3543 12.8533L10.3986 12.7291L10.2955 12.6523L10.4265 12.6489ZM9.83854 12.3463L9.87462 12.2457L9.9066 12.3451H10.0159L9.92624 12.4084L9.95614 12.5066L9.87052 12.4479L9.78283 12.5089L9.81897 12.4118L9.73027 12.3496L9.83854 12.3463ZM9.59303 12.7844L9.48066 12.8612L9.51881 12.9809L9.41563 12.9064L9.30326 12.982L9.34858 12.8623L9.24031 12.7867H9.3754L9.41978 12.6602L9.46209 12.7867L9.59303 12.7844ZM9.26712 9.02734L9.30118 8.92344L9.33316 9.02734H9.44452L9.35582 9.09282L9.39089 9.19786L9.30011 9.13121L9.2104 9.19786L9.24547 9.09282L9.15576 9.0262L9.26712 9.02734ZM8.97112 12.2333L9.00719 12.1328L9.04125 12.2333H9.15161L9.06291 12.2943L9.09589 12.3948L9.00619 12.3327L8.91749 12.396L8.95255 12.2954L8.86486 12.2345L8.97112 12.2333ZM8.41519 10.6151L8.46058 10.4841L8.50288 10.6151H8.64106L8.52863 10.6953L8.57194 10.8217L8.4585 10.7415L8.34714 10.8217L8.38837 10.6953L8.27184 10.6151H8.41519ZM7.96753 11.8889L7.83552 11.794L7.70042 11.8889L7.75198 11.7353L7.61789 11.6393H7.78396L7.83552 11.488L7.88708 11.6393H8.05315L7.91805 11.7342L7.96753 11.8889ZM7.7912 10.1397L7.83552 10.012L7.87675 10.1397H8.01601L7.90256 10.221L7.94795 10.3508L7.83344 10.2707L7.72208 10.3508L7.76438 10.2199L7.64987 10.1397H7.7912ZM7.54052 11.0024L7.56533 10.929L7.59007 11.0024H7.66744L7.60448 11.0476L7.62614 11.1221L7.56426 11.0758L7.5003 11.121L7.52403 11.0476L7.45906 11.0013L7.54052 11.0024ZM7.26001 10.6252L7.29199 10.5214L7.32705 10.6252H7.43949L7.34971 10.6885L7.38478 10.7924L7.29406 10.728L7.20329 10.7924L7.23835 10.6885L7.14858 10.6252H7.26001ZM5.74587 9.50275L5.78717 9.37176L5.8284 9.50275H5.96658L5.85623 9.58295L5.89853 9.71394L5.78509 9.63375L5.67474 9.71394L5.71698 9.58295L5.60662 9.50275H5.74587ZM5.65308 12.0515L5.70155 11.8991L5.7562 12.0526H5.91918L5.78818 12.143L5.83973 12.2943L5.70672 12.1995L5.57571 12.2909L5.62311 12.1419L5.4901 12.0493L5.65308 12.0515ZM5.01978 11.0747L5.06208 10.9459L5.1064 11.0747H5.24257L5.13322 11.1538L5.17861 11.2825L5.06517 11.2L4.96199 11.2802L5.00121 11.1515L4.88877 11.0713L5.01978 11.0747ZM4.9166 11.4982L4.95273 11.5998H5.05585L4.97023 11.663L5.00738 11.7658L4.91868 11.7014L4.83105 11.7647L4.86196 11.663L4.77326 11.5976H4.8826L4.9166 11.4982Z" fill="#182B73"/>
<path d="M4.11171 7.24644L3.93829 7.26215L3.94449 7.38583L4.11791 7.37008C4.13251 7.36812 4.14586 7.36021 4.15537 7.34792C4.16488 7.33563 4.16983 7.31986 4.16921 7.30376C4.16924 7.29574 4.16771 7.28778 4.16476 7.28043C4.16182 7.27308 4.15753 7.26649 4.15211 7.26108C4.14669 7.25568 4.14028 7.25157 4.13332 7.24904C4.12637 7.24652 4.11901 7.24565 4.11171 7.24644Z" fill="white"/>
<path d="M4.68643 7.2137H4.5643C4.5643 7.31563 4.5643 7.41791 4.5643 7.52059H4.68643C4.71893 7.51832 4.74948 7.50272 4.77193 7.47688C4.79438 7.45103 4.80705 7.41686 4.8075 7.38119C4.8075 7.3677 4.8075 7.3531 4.8075 7.33848C4.80711 7.32155 4.80367 7.30488 4.79736 7.28942C4.79104 7.27396 4.782 7.26003 4.77074 7.24842C4.75948 7.23682 4.74625 7.22776 4.73178 7.2218C4.71731 7.21584 4.70188 7.2131 4.68643 7.2137Z" fill="white"/>
<path d="M3.44027 7.32323C3.4064 7.33056 3.37658 7.35234 3.35734 7.38373C3.3381 7.41513 3.33103 7.45361 3.33767 7.49071C3.33737 7.5089 3.34047 7.52696 3.34681 7.54378C3.35316 7.56059 3.36263 7.57578 3.37456 7.58843C3.3865 7.60108 3.40067 7.61089 3.41622 7.61728C3.43177 7.62367 3.44836 7.62651 3.46495 7.62558C3.49843 7.61746 3.52777 7.59554 3.54688 7.56436C3.56598 7.53317 3.57337 7.4951 3.56755 7.4581C3.56785 7.43991 3.56474 7.42185 3.5584 7.40503C3.55206 7.38822 3.54259 7.37303 3.53065 7.36038C3.51872 7.34773 3.50455 7.33792 3.489 7.33153C3.47345 7.32514 3.45686 7.3223 3.44027 7.32323Z" fill="white"/>
<path d="M12.4842 10.1848C12.5082 10.1581 12.5216 10.1222 12.5216 10.0848C12.5216 10.0474 12.5082 10.0115 12.4842 9.98477C12.4706 9.97412 12.455 9.96666 12.4386 9.96292C12.4222 9.95918 12.4053 9.95922 12.3889 9.96302C12.3725 9.96683 12.357 9.97434 12.3434 9.98504C12.3298 9.99575 12.3184 10.0094 12.3098 10.0252C12.2866 10.0523 12.2737 10.0881 12.2737 10.1253C12.2737 10.1624 12.2866 10.1982 12.3098 10.2253C12.3236 10.2354 12.3391 10.2425 12.3555 10.246C12.3718 10.2494 12.3886 10.2493 12.4049 10.2455C12.4212 10.2417 12.4365 10.2344 12.4502 10.224C12.4638 10.2135 12.4754 10.2002 12.4842 10.1848Z" fill="white"/>
<path d="M8.05204 7.69072C8.05405 7.68282 8.05466 7.67454 8.05373 7.6664C8.0528 7.65827 8.05038 7.65043 8.04665 7.64332C8.04293 7.63621 8.03794 7.62999 8.03199 7.62501C8.02605 7.62002 8.01925 7.61635 8.01201 7.61427L7.8417 7.56485L7.81088 7.69072L7.98126 7.73678C7.98867 7.73949 7.99653 7.74043 8.00431 7.73952C8.01208 7.73861 8.01957 7.73587 8.02629 7.7315C8.03301 7.72712 8.03882 7.72122 8.04327 7.71418C8.04772 7.70714 8.05067 7.69915 8.05204 7.69072Z" fill="white"/>
<path d="M10.448 8.65831C10.4518 8.65072 10.454 8.64237 10.4546 8.63375C10.4553 8.62514 10.4543 8.61646 10.4517 8.6083C10.4491 8.60015 10.4449 8.59271 10.4395 8.58642C10.4341 8.58013 10.4275 8.57512 10.4202 8.57177L10.2633 8.48523L10.213 8.59763L10.37 8.68418C10.3836 8.69127 10.3991 8.69256 10.4135 8.68778C10.428 8.683 10.4403 8.67248 10.448 8.65831Z" fill="white"/>
<path d="M8.67422 7.88155C8.67837 7.86516 8.67656 7.84762 8.66908 7.83271C8.66161 7.8178 8.64905 7.80668 8.6342 7.80173L8.46696 7.74554L8.43414 7.86467L8.60244 7.92539C8.61726 7.92961 8.63297 7.92738 8.64635 7.91921C8.65973 7.91105 8.66969 7.89758 8.67422 7.88155Z" fill="white"/>
<path d="M2.95536 7.18205C2.83674 7.43455 2.74138 7.69933 2.67068 7.97252C4.46149 7.63985 6.29615 7.72246 8.05596 8.215C9.81577 8.70753 11.4616 9.59904 12.8869 10.8318C12.9746 10.5645 13.0381 10.2884 13.0767 10.0075C10.1767 7.63705 6.53672 6.62185 2.95435 7.18429L2.95536 7.18205ZM3.27408 7.74669C3.24534 7.75029 3.21626 7.7476 3.18847 7.73879C3.16068 7.72999 3.13472 7.71522 3.11217 7.69537C3.08963 7.67552 3.0709 7.65097 3.05709 7.62314C3.04327 7.59531 3.03467 7.56477 3.03172 7.53326C3.02581 7.46881 3.0429 7.40434 3.07944 7.3534C3.11597 7.30246 3.16911 7.26898 3.22769 7.25997C3.25632 7.25605 3.2854 7.25843 3.31318 7.26697C3.34096 7.27551 3.3669 7.29003 3.38948 7.3097C3.41206 7.32937 3.43078 7.3538 3.44462 7.38152C3.45847 7.40924 3.46712 7.43969 3.47006 7.47112C3.4771 7.5363 3.46055 7.6019 3.42391 7.65384C3.38727 7.70578 3.33346 7.73992 3.27408 7.74893V7.74669ZM4.0992 7.66198L4.01258 7.66987C4.01622 7.60556 3.9966 7.5423 3.95794 7.49373L3.75781 7.50951C3.75781 7.56937 3.76403 7.62922 3.76713 7.6902L3.67427 7.69813C3.66877 7.53476 3.66398 7.37252 3.65986 7.21141L3.94346 7.1877C3.96268 7.18504 3.98223 7.18663 4.00087 7.19239C4.01952 7.19815 4.03688 7.20796 4.05199 7.22124C4.0671 7.23451 4.07964 7.25097 4.08882 7.26966C4.09799 7.28834 4.10365 7.30884 4.10544 7.32996C4.10595 7.35737 4.09971 7.38442 4.08737 7.40826C4.07503 7.43211 4.05698 7.45187 4.03524 7.46547C4.08991 7.50387 4.09615 7.61005 4.10027 7.66425L4.0992 7.66198ZM4.75932 7.42935C4.75813 7.45902 4.75161 7.48812 4.74012 7.51503C4.72864 7.54193 4.71243 7.56612 4.69241 7.58616C4.67238 7.60619 4.64892 7.62168 4.62341 7.63179C4.5979 7.64189 4.57087 7.64642 4.54377 7.64506L4.30965 7.65408C4.30965 7.48921 4.30965 7.32509 4.30965 7.16172L4.54585 7.15607C4.57223 7.1536 4.59876 7.157 4.62391 7.16603C4.64907 7.17505 4.67229 7.18954 4.69222 7.20862C4.71215 7.2277 4.72834 7.25097 4.73987 7.27706C4.7514 7.30316 4.75803 7.33151 4.75932 7.36046C4.76001 7.38456 4.76033 7.40791 4.76033 7.43049L4.75932 7.42935ZM12.4155 9.94198C12.454 9.89008 12.5087 9.85549 12.569 9.84487C12.6293 9.83424 12.691 9.84833 12.7425 9.88439C12.7653 9.90335 12.7841 9.92746 12.7976 9.95511C12.8111 9.98276 12.8191 10.0133 12.8208 10.0446C12.8226 10.0759 12.8182 10.1072 12.8079 10.1365C12.7976 10.1657 12.7816 10.1922 12.761 10.2141C12.7225 10.266 12.668 10.3006 12.6077 10.3115C12.5475 10.3223 12.4857 10.3085 12.4341 10.2729C12.4123 10.2531 12.3945 10.2286 12.3817 10.2009C12.3689 10.1733 12.3615 10.1431 12.3598 10.1122C12.3582 10.0812 12.3624 10.0503 12.3721 10.0212C12.3819 9.99209 12.397 9.9655 12.4166 9.94308L12.4155 9.94198ZM11.8472 9.63933L11.94 9.70595C11.9101 9.74547 11.9328 9.79289 11.9916 9.8358C12.0504 9.87872 12.0875 9.87872 12.1071 9.85162C12.168 9.76918 11.8606 9.62579 11.9668 9.48012C12.0566 9.35703 12.1917 9.46317 12.2443 9.49931C12.2969 9.53545 12.3753 9.63143 12.302 9.73193L12.2164 9.67207C12.2463 9.62238 12.2164 9.57947 12.171 9.54559C12.1257 9.51172 12.0916 9.49928 12.0628 9.53881C12.0133 9.60882 12.3093 9.75676 12.2093 9.90018C12.1329 10.0063 12.0143 9.951 11.938 9.90018C11.8617 9.84936 11.775 9.74323 11.8482 9.64047L11.8472 9.63933ZM11.4645 9.4767C11.5243 9.51284 11.5677 9.51284 11.5852 9.48573C11.6388 9.39878 11.3212 9.27569 11.4212 9.1255C11.5048 8.99563 11.6482 9.09615 11.7018 9.13229C11.7554 9.16842 11.841 9.25539 11.775 9.35815L11.6853 9.30167C11.7121 9.25537 11.6853 9.21134 11.6317 9.18198C11.578 9.15262 11.5481 9.13907 11.5212 9.18198C11.4748 9.25199 11.7812 9.38525 11.6873 9.53205C11.6172 9.64498 11.4976 9.59529 11.414 9.54222C11.3305 9.48914 11.2397 9.39541 11.3109 9.28812L11.4047 9.3525C11.3789 9.3909 11.4058 9.43832 11.4656 9.47784L11.4645 9.4767ZM11.2934 8.87933L11.2469 8.95952L10.9468 8.79238L10.8963 8.87933L11.1489 9.02049L11.1056 9.09389L10.856 8.95274L10.7921 9.06567L11.1128 9.24294L11.0654 9.32652L10.6704 9.10068L10.9158 8.6659L11.2934 8.87933ZM10.3207 8.36891L10.5827 8.49652C10.601 8.50406 10.6176 8.51572 10.6315 8.53074C10.6454 8.54577 10.6562 8.56383 10.6633 8.58375C10.6704 8.60366 10.6736 8.62498 10.6727 8.64633C10.6718 8.66768 10.6668 8.68858 10.658 8.70767C10.644 8.73313 10.6244 8.75433 10.6009 8.76933C10.5775 8.78432 10.551 8.79266 10.5239 8.79352C10.5538 8.85789 10.5033 8.95499 10.4765 9.00581L10.3991 8.96855C10.434 8.91403 10.4488 8.84703 10.4404 8.78108L10.2599 8.68961L10.1753 8.85676L10.0897 8.81271C10.1681 8.66516 10.2454 8.5176 10.3217 8.37004L10.3207 8.36891ZM9.59874 8.32373C9.62685 8.26422 9.67355 8.21779 9.73037 8.19291C9.78719 8.16802 9.85031 8.16635 9.90815 8.18822C9.93589 8.19929 9.96113 8.21676 9.98218 8.23943C10.0032 8.2621 10.0196 8.28943 10.0302 8.31962C10.0407 8.34981 10.0452 8.38217 10.0434 8.41443C10.0415 8.4467 10.0334 8.47816 10.0195 8.50669L9.9164 8.73252L9.84834 8.70202L9.87516 8.64106C9.82008 8.66439 9.75901 8.66439 9.70393 8.64106C9.6774 8.62853 9.65344 8.61024 9.63355 8.5873C9.61366 8.56435 9.59825 8.53722 9.58822 8.50755C9.5782 8.47788 9.57381 8.44627 9.57526 8.41467C9.5767 8.38308 9.58397 8.35215 9.59666 8.32373H9.59874ZM8.97985 8.08773C9.00357 8.02479 9.04798 7.97387 9.10431 7.94502C9.16064 7.91617 9.22484 7.91148 9.28416 7.93189C9.3126 7.94203 9.33875 7.95859 9.36097 7.98051C9.38318 8.00244 9.40094 8.02921 9.41309 8.05912C9.42525 8.08904 9.43154 8.12143 9.43154 8.15417C9.43153 8.18691 9.42525 8.21927 9.41309 8.24918C9.38972 8.31379 9.34458 8.36613 9.287 8.39534C9.22941 8.42455 9.16374 8.42841 9.10362 8.40616C9.07537 8.39572 9.04942 8.379 9.02738 8.35702C9.00534 8.33504 8.98775 8.3083 8.97563 8.27848C8.96352 8.24866 8.95715 8.21641 8.957 8.18377C8.95685 8.15113 8.96285 8.11879 8.97469 8.08883L8.97985 8.08773ZM8.42908 7.64957L8.71067 7.73652C8.72951 7.74146 8.74727 7.75055 8.76279 7.76326C8.77831 7.77597 8.79128 7.79201 8.80094 7.81041C8.8106 7.8288 8.81673 7.84919 8.81894 7.87027C8.82116 7.89135 8.81937 7.91267 8.81378 7.93299C8.80444 7.96054 8.78851 7.98485 8.76764 8.00333C8.74677 8.02181 8.72174 8.03379 8.69518 8.03803C8.7354 8.09675 8.70345 8.20178 8.68385 8.25825L8.60132 8.23113C8.62677 8.16949 8.62937 8.09944 8.60856 8.03576L8.41466 7.97593L8.35687 8.15658L8.26408 8.1295L8.42908 7.64957ZM7.77003 7.47905L8.0547 7.55245C8.07408 7.55553 8.09264 7.56309 8.10915 7.57461C8.12567 7.58614 8.13972 7.60137 8.15045 7.61931C8.16118 7.63725 8.1683 7.65748 8.17135 7.67866C8.1744 7.69984 8.17331 7.72149 8.16814 7.74217C8.15427 7.7844 8.12648 7.81942 8.09021 7.84032C8.05393 7.86122 8.01182 7.86647 7.97217 7.85507L7.77311 7.80541L7.72464 7.98496L7.63179 7.96125L7.77003 7.47905ZM6.73862 7.33562L7.10783 7.39772L7.09033 7.48015L6.80975 7.43501L6.79534 7.51065L7.03153 7.55018L7.01712 7.63375L6.77777 7.59422L6.76027 7.70716L7.05218 7.75344L7.0377 7.84039L6.65715 7.77829C6.68053 7.63073 6.70525 7.48468 6.73138 7.34013L6.73862 7.33562ZM5.6474 7.17302L5.77217 7.18205C5.79417 7.29724 5.81652 7.41242 5.83921 7.52761L5.97538 7.19673L6.10431 7.20576C6.08643 7.36913 6.06887 7.5336 6.05168 7.69923L5.96298 7.69361C5.97398 7.58069 5.98534 7.46774 5.99703 7.35481L5.86395 7.68682L5.78249 7.68117L5.71545 7.33448L5.68038 7.67328L5.59577 7.66763C5.60884 7.502 5.62397 7.33749 5.64116 7.17413L5.6474 7.17302ZM4.98004 7.14928L5.4112 7.16172V7.25094L5.06666 7.24415C5.06666 7.2769 5.06666 7.30967 5.06666 7.34354L5.35341 7.35144C5.35341 7.37854 5.35341 7.40677 5.35341 7.43387L5.06666 7.42598C5.06666 7.46889 5.0605 7.51178 5.0574 7.55469L5.42561 7.56486V7.65408L4.9728 7.64392C4.96454 7.47829 4.96627 7.31378 4.97796 7.15042L4.98004 7.14928Z" fill="white"/>
<path d="M9.76371 8.42238L9.84275 8.45945C9.85959 8.42576 9.86352 8.38613 9.85371 8.34925C9.8439 8.31237 9.82112 8.28129 9.79039 8.26278C9.77396 8.25666 9.75659 8.25417 9.73928 8.25551C9.72197 8.25685 9.7051 8.26198 9.68961 8.27057C9.67413 8.27915 9.66032 8.29103 9.64909 8.30552C9.63785 8.32001 9.62939 8.33682 9.62416 8.35494C9.61589 8.37137 9.61072 8.38942 9.60888 8.40807C9.60703 8.42672 9.60858 8.44558 9.61345 8.46357C9.61832 8.48155 9.62636 8.49832 9.63719 8.51286C9.64802 8.52739 9.66141 8.53942 9.67652 8.54825C9.69809 8.55758 9.7217 8.55966 9.74435 8.55426C9.76701 8.54885 9.78765 8.5362 9.80373 8.5179L9.73702 8.48531L9.76371 8.42238Z" fill="white"/>
<path d="M9.09343 8.30397C9.12741 8.31358 9.16348 8.30806 9.19376 8.28862C9.22404 8.26919 9.24606 8.23741 9.25501 8.20024C9.26934 8.16489 9.27093 8.12491 9.25948 8.08832C9.24802 8.05174 9.22437 8.02126 9.19326 8.00297C9.1588 7.99546 9.12301 8.00161 9.0923 8.02031C9.06159 8.03901 9.03794 8.06902 9.02558 8.10504C9.01321 8.14107 9.0129 8.18073 9.02476 8.21696C9.03662 8.25319 9.05984 8.28362 9.09029 8.30283L9.09343 8.30397Z" fill="white"/>
<path d="M3.42955 7.23171C3.37442 7.24476 3.32579 7.28009 3.29337 7.33064C3.26095 7.3812 3.24713 7.44327 3.25461 7.5045C3.25754 7.56412 3.28193 7.62005 3.32245 7.66C3.36297 7.69994 3.41626 7.72065 3.4707 7.71758C3.52591 7.70428 3.57453 7.66873 3.60694 7.61799C3.63935 7.56725 3.65315 7.50502 3.64564 7.44365C3.64489 7.41392 3.63865 7.38466 3.62723 7.35768C3.61581 7.3307 3.59947 7.30655 3.57924 7.28671C3.55901 7.26688 3.53532 7.25179 3.50958 7.24234C3.48384 7.23288 3.45661 7.22924 3.42955 7.23171ZM3.46353 7.62515C3.4469 7.62608 3.43026 7.62323 3.41466 7.61682C3.39907 7.61041 3.3848 7.60058 3.37283 7.58789C3.36086 7.5752 3.35142 7.55993 3.34507 7.54307C3.33871 7.52621 3.33559 7.50809 3.33589 7.48985C3.32924 7.45263 3.33632 7.41404 3.35562 7.38255C3.37491 7.35106 3.40482 7.32926 3.43879 7.3219C3.45542 7.32097 3.47206 7.32379 3.48766 7.3302C3.50325 7.3366 3.51746 7.34647 3.52943 7.35916C3.5414 7.37185 3.5509 7.38709 3.55725 7.40395C3.56361 7.42081 3.56673 7.43893 3.56643 7.45717C3.57345 7.49497 3.5666 7.53428 3.54733 7.56656C3.52806 7.59885 3.49796 7.62153 3.46353 7.62965V7.62515Z" fill="#579944"/>
<path d="M4.25654 7.29721C4.25618 7.27727 4.25208 7.25761 4.24451 7.23948C4.23694 7.22134 4.22607 7.20511 4.21253 7.19177C4.199 7.17843 4.18309 7.16826 4.16582 7.16192C4.14856 7.15558 4.13027 7.15319 4.11212 7.15489L3.85843 7.1786C3.86187 7.34049 3.86602 7.50276 3.87083 7.6654L3.9533 7.6575C3.9533 7.59764 3.94814 7.53665 3.94505 7.47679L4.12352 7.46097C4.11013 7.44653 4.09375 7.43583 4.0758 7.42974C4.05786 7.42365 4.03884 7.42234 4.02034 7.42595L4.13894 7.41468C4.15633 7.41316 4.17361 7.41877 4.18741 7.43046C4.20831 7.41648 4.22562 7.39694 4.23771 7.37362C4.2498 7.35031 4.25628 7.32402 4.25654 7.29721ZM4.11628 7.37063L3.94197 7.38641L3.9358 7.26219L4.11011 7.24637C4.11744 7.24558 4.12484 7.24648 4.13183 7.24902C4.13882 7.25156 4.14521 7.25569 4.15065 7.26112C4.1561 7.26655 4.16047 7.27318 4.16343 7.28056C4.16639 7.28795 4.16787 7.2959 4.16784 7.30396C4.16847 7.32014 4.16354 7.33598 4.15399 7.34833C4.14443 7.36067 4.13095 7.36865 4.11628 7.37063Z" fill="#579944"/>
<path d="M4.0365 7.43157C4.0549 7.42797 4.07382 7.42924 4.09168 7.4353C4.10953 7.44137 4.12583 7.45205 4.13915 7.46641C4.17372 7.51673 4.19081 7.57889 4.18737 7.64175L4.26435 7.63386C4.26435 7.57991 4.25506 7.47426 4.20785 7.43493C4.19412 7.42329 4.17693 7.41771 4.15963 7.41922L4.0365 7.43157Z" fill="#579944"/>
<path d="M4.69165 7.12558L4.48535 7.13124C4.48535 7.29461 4.48535 7.45875 4.48535 7.62363L4.69165 7.61456C4.74309 7.61338 4.79205 7.59009 4.82795 7.54974C4.86384 7.50938 4.88375 7.45522 4.88347 7.39889C4.88347 7.37517 4.88347 7.35258 4.88347 7.32999C4.88377 7.30258 4.87897 7.27539 4.86937 7.25007C4.85977 7.22475 4.84558 7.20181 4.82763 7.18269C4.80969 7.16357 4.78837 7.14864 4.76499 7.13882C4.74161 7.129 4.71667 7.12451 4.69165 7.12558ZM4.68441 7.52647H4.56171C4.56171 7.42333 4.56171 7.32058 4.56171 7.21819H4.6834C4.69911 7.21789 4.71472 7.22102 4.7293 7.22743C4.74387 7.23383 4.75711 7.24337 4.76827 7.25548C4.77942 7.26758 4.78823 7.282 4.7942 7.29791C4.80018 7.31381 4.80316 7.33086 4.80302 7.34805C4.80302 7.36236 4.80302 7.37665 4.80302 7.39096C4.80139 7.42526 4.78849 7.45776 4.76669 7.48246C4.74489 7.50716 4.71567 7.52242 4.68441 7.52537V7.52647Z" fill="#579944"/>
<path d="M5.50081 7.53208L5.17172 7.52195C5.17172 7.47904 5.17171 7.43611 5.17997 7.3932L5.43578 7.4011V7.31866L5.17997 7.31077V7.21138L5.48942 7.21817V7.12895L5.10467 7.11655C5.09641 7.28066 5.08888 7.44513 5.082 7.61L5.48633 7.62017C5.49768 7.59194 5.49875 7.56257 5.50081 7.53208Z" fill="#579944"/>
<path d="M5.81513 7.30287L5.87493 7.64961L5.94821 7.65526L6.06682 7.32321L6.03584 7.66202L6.11529 7.66767C6.1311 7.50277 6.14694 7.33824 6.16276 7.1741L6.04724 7.16507L5.92548 7.49599C5.90486 7.38004 5.88493 7.26484 5.86568 7.15039L5.75425 7.14136C5.73912 7.30475 5.72405 7.46889 5.70892 7.63379L5.78422 7.63944L5.81513 7.30287Z" fill="#579944"/>
<path d="M7.07546 7.72637L6.81553 7.68008L6.83102 7.56712L7.04455 7.60666L7.05689 7.52307L6.8506 7.48354L6.863 7.40788L7.1136 7.45303L7.12909 7.37058L6.80011 7.30847C6.77536 7.4553 6.7509 7.6025 6.72684 7.75008L7.0662 7.81223L7.07546 7.72637Z" fill="#579944"/>
<path d="M7.78719 7.78168L7.96559 7.83134C8.00237 7.84132 8.04126 7.8351 8.07387 7.81398C8.10647 7.79285 8.13019 7.75854 8.1399 7.71844C8.14498 7.69856 8.14635 7.67774 8.14387 7.65727C8.14139 7.63681 8.13513 7.61712 8.12549 7.59938C8.11584 7.58164 8.10296 7.56624 8.08772 7.55409C8.07247 7.54195 8.05517 7.53332 8.03679 7.52873L7.78303 7.45532L7.66034 7.93863L7.74281 7.96234L7.78719 7.78168ZM7.83975 7.56484L8.01098 7.61454C8.01826 7.61663 8.02509 7.62028 8.03106 7.62529C8.03703 7.6303 8.04205 7.63655 8.04579 7.6437C8.04953 7.65084 8.05191 7.65875 8.05284 7.66692C8.05377 7.6751 8.05323 7.68339 8.0512 7.69132C8.04981 7.69966 8.04679 7.70758 8.04239 7.71455C8.03799 7.72152 8.03228 7.7274 8.02565 7.73178C8.01902 7.73616 8.01162 7.73894 8.00393 7.73995C7.99624 7.74096 7.98846 7.74018 7.98108 7.73764L7.80884 7.69132L7.83975 7.56484Z" fill="#579944"/>
<path d="M8.40426 7.95559L8.57751 8.01545C8.5697 7.99761 8.55846 7.9818 8.54458 7.96913C8.5307 7.95647 8.51449 7.94724 8.49705 7.94205L8.61364 7.98271C8.63072 7.98871 8.64531 8.00107 8.65487 8.01769C8.67913 8.01203 8.70155 7.99927 8.71971 7.98078C8.73788 7.96229 8.75114 7.93876 8.75805 7.91268C8.76912 7.87315 8.76558 7.83042 8.74823 7.79369C8.73088 7.75696 8.70107 7.72914 8.6652 7.71619L8.41352 7.62924L8.26709 8.11029L8.34956 8.13741L8.40426 7.95559ZM8.46514 7.74555L8.63322 7.80203C8.64119 7.80382 8.64873 7.80736 8.65538 7.81251C8.66202 7.81765 8.66761 7.82424 8.67181 7.83187C8.676 7.8395 8.6787 7.84802 8.67974 7.85686C8.68078 7.86569 8.68014 7.87467 8.67785 7.88322C8.67556 7.89177 8.67169 7.8997 8.66646 7.90652C8.66122 7.91333 8.65474 7.91888 8.64744 7.92282C8.64015 7.92675 8.63215 7.92897 8.62403 7.92936C8.6159 7.92976 8.60782 7.92831 8.60023 7.92509L8.43108 7.86413L8.46514 7.74555Z" fill="#579944"/>
<path d="M8.61621 7.9882L8.50021 7.94772C8.51756 7.95289 8.53369 7.96208 8.5475 7.97468C8.56131 7.98729 8.57249 8.00303 8.58026 8.02079C8.59879 8.08443 8.59664 8.15316 8.57412 8.21524L8.64796 8.2422C8.66438 8.186 8.69415 8.08146 8.65823 8.02302C8.64853 8.0062 8.63362 7.99384 8.61621 7.9882Z" fill="#579944"/>
<path d="M9.06549 8.39154C9.09271 8.40095 9.12135 8.40435 9.14978 8.40154C9.17821 8.39872 9.20582 8.38974 9.23106 8.37513C9.25629 8.36053 9.27864 8.34056 9.29678 8.31643C9.31492 8.2923 9.32852 8.26446 9.33676 8.23453C9.35962 8.17577 9.36039 8.10953 9.33896 8.05012C9.31753 7.99072 9.27561 7.94296 9.22224 7.91718C9.19509 7.90775 9.16651 7.9043 9.13813 7.90704C9.10976 7.90979 9.08215 7.91864 9.05692 7.93314C9.0317 7.94763 9.00939 7.96748 8.9912 7.99149C8.97301 8.0155 8.95932 8.04322 8.95097 8.07305C8.92834 8.132 8.92763 8.19829 8.94902 8.2578C8.97041 8.31731 9.01223 8.3653 9.06549 8.39154ZM9.03042 8.11031C9.03486 8.09145 9.04263 8.07374 9.05334 8.05819C9.06404 8.04264 9.07748 8.02955 9.09281 8.01969C9.10814 8.00982 9.12505 8.0034 9.14267 8.00073C9.16028 7.99806 9.17822 7.99921 9.19542 8.00414C9.2266 8.02247 9.2503 8.053 9.26178 8.08966C9.27325 8.12632 9.27166 8.16637 9.25731 8.20179C9.24834 8.23903 9.22627 8.27087 9.19593 8.29034C9.16558 8.30981 9.12944 8.31535 9.09539 8.30571C9.06326 8.28905 9.03843 8.25918 9.02627 8.22261C9.0141 8.18603 9.0156 8.14569 9.03042 8.11031Z" fill="#579944"/>
<path d="M9.64552 8.63652C9.6696 8.64802 9.69562 8.65399 9.72189 8.65399C9.74816 8.65399 9.77412 8.64802 9.79819 8.63652L9.83842 8.53489L9.80644 8.51911C9.79028 8.5375 9.76953 8.55021 9.74676 8.55564C9.72398 8.56107 9.70019 8.55894 9.67851 8.54957C9.66333 8.5407 9.64992 8.52861 9.63904 8.51401C9.62816 8.49941 9.62001 8.4826 9.61512 8.46453C9.61022 8.44645 9.60867 8.42751 9.61052 8.40877C9.61237 8.39003 9.61763 8.37186 9.62595 8.35535C9.6312 8.33714 9.63971 8.32025 9.651 8.3057C9.66229 8.29114 9.67611 8.2792 9.69167 8.27058C9.70724 8.26195 9.72425 8.25683 9.74166 8.25549C9.75906 8.25414 9.77651 8.25661 9.79303 8.26276C9.82392 8.28135 9.84681 8.31262 9.85668 8.34967C9.86654 8.38672 9.86259 8.42654 9.84566 8.46039L9.92504 8.49764C9.93595 8.47043 9.94186 8.44113 9.94242 8.41142C9.94298 8.38171 9.93818 8.35219 9.92832 8.32451C9.91845 8.29683 9.90373 8.27152 9.88494 8.25008C9.86615 8.22863 9.84369 8.21146 9.81884 8.19952C9.79398 8.18758 9.76722 8.18111 9.74008 8.1805C9.71295 8.17988 9.68598 8.18514 9.6607 8.19594C9.63541 8.20674 9.61229 8.22289 9.59271 8.24346C9.57312 8.26403 9.5574 8.28862 9.5465 8.31583C9.52215 8.37296 9.51886 8.43819 9.5373 8.49792C9.55575 8.55765 9.5945 8.60728 9.64552 8.63652Z" fill="#579944"/>
<path d="M9.76698 8.42422L9.7403 8.48715L9.807 8.51972L9.83881 8.53546L9.86449 8.47141L9.92499 8.49839L9.84602 8.46129L9.76698 8.42422Z" fill="#579944"/>
<path d="M9.84441 8.53798L9.80437 8.63915L9.77975 8.69987L9.84027 8.73023L9.93061 8.50539L9.87003 8.47839L9.84441 8.53798Z" fill="#579944"/>
<path d="M10.1781 8.68507L10.339 8.77657C10.3335 8.7564 10.324 8.73781 10.3112 8.72218C10.2983 8.70655 10.2824 8.69426 10.2647 8.68621L10.3771 8.74607C10.3938 8.75511 10.4069 8.77031 10.4143 8.78897C10.4394 8.7875 10.4636 8.77879 10.4847 8.76371C10.5057 8.74864 10.5226 8.72775 10.5339 8.70316C10.5499 8.6652 10.5518 8.62186 10.5391 8.58241C10.5264 8.54295 10.5001 8.5105 10.4658 8.49198L10.2348 8.36664L10.0285 8.81155L10.1049 8.85559L10.1781 8.68507ZM10.2647 8.48409L10.4225 8.57103C10.4298 8.5744 10.4364 8.57939 10.4418 8.58571C10.4473 8.59204 10.4514 8.59954 10.4541 8.60774C10.4567 8.61593 10.4577 8.62462 10.4571 8.63327C10.4564 8.64193 10.4541 8.65036 10.4503 8.65798C10.4433 8.67301 10.4312 8.68451 10.4167 8.69017C10.4021 8.69583 10.3861 8.69524 10.372 8.68848L10.2141 8.60153L10.2647 8.48409Z" fill="#579944"/>
<path d="M10.3766 8.75049L10.2644 8.69077C10.2821 8.6988 10.2979 8.71104 10.3108 8.72665C10.3236 8.74225 10.3331 8.76081 10.3385 8.78094C10.3465 8.84599 10.3337 8.91204 10.3025 8.96806L10.3715 9.00528C10.3951 8.95455 10.4404 8.85758 10.4137 8.79332C10.4064 8.77469 10.3932 8.75951 10.3766 8.75049Z" fill="#579944"/>
<path d="M10.9384 9.33107L10.9807 9.24749L10.6949 9.07021L10.7517 8.95727L10.9744 9.09844L11.0137 9.02503L10.7878 8.88386L10.8321 8.79691L11.1003 8.96406L11.1416 8.88386L10.8043 8.67267L10.5857 9.10747L10.9384 9.33107Z" fill="#579944"/>
<path d="M11.1932 9.29716C11.1303 9.40444 11.2231 9.50831 11.285 9.55123C11.3468 9.59414 11.4665 9.65403 11.5294 9.5411C11.6129 9.39428 11.3396 9.26099 11.3809 9.19097C11.4046 9.14806 11.4376 9.16161 11.484 9.19097C11.5304 9.22034 11.5552 9.2644 11.5315 9.3107L11.6119 9.36716C11.6218 9.3478 11.628 9.32646 11.6301 9.3044C11.6321 9.28233 11.63 9.26004 11.624 9.23888C11.6179 9.21772 11.6079 9.19814 11.5947 9.18136C11.5814 9.16458 11.5652 9.15096 11.547 9.14131C11.4995 9.10404 11.3716 9.00465 11.2963 9.13452C11.2066 9.28472 11.4902 9.40782 11.4428 9.49478C11.4273 9.52188 11.3891 9.52189 11.3396 9.48575C11.2901 9.44961 11.2623 9.39879 11.286 9.35926L11.1932 9.29716Z" fill="#579944"/>
<path d="M11.7874 9.91713C11.8555 9.9702 11.9607 10.0301 12.0287 9.91713C12.1185 9.77484 11.8545 9.62578 11.8978 9.55576C11.9246 9.51624 11.9566 9.52864 11.9947 9.56252C12.0329 9.59639 12.0618 9.63821 12.035 9.68903L12.1113 9.74885C12.1221 9.72995 12.1293 9.70888 12.1326 9.68686C12.1359 9.66483 12.1351 9.64233 12.1303 9.62065C12.1255 9.59897 12.1168 9.57855 12.1047 9.56062C12.0925 9.54269 12.0772 9.5276 12.0597 9.51624C12.0133 9.4801 11.8926 9.37395 11.8122 9.49704C11.7173 9.64384 11.9906 9.78501 11.937 9.86857C11.9194 9.89567 11.8844 9.89228 11.8338 9.85275C11.7833 9.81323 11.7606 9.76355 11.7874 9.7229L11.7049 9.65625C11.641 9.76127 11.7286 9.86744 11.7874 9.91713Z" fill="#579944"/>
<path d="M12.554 10.2424C12.5914 10.1961 12.6107 10.1356 12.6076 10.0738C12.6046 10.0121 12.5793 9.95419 12.5375 9.91267C12.5151 9.89497 12.4896 9.88239 12.4626 9.8757C12.4356 9.869 12.4077 9.86833 12.3804 9.8737C12.3532 9.87907 12.3272 9.8904 12.3041 9.90699C12.2809 9.92357 12.261 9.94508 12.2456 9.97025C12.2089 10.0169 12.1902 10.0773 12.1932 10.1388C12.1963 10.2002 12.221 10.258 12.2622 10.3C12.2846 10.3177 12.3101 10.3302 12.3371 10.3369C12.3641 10.3436 12.392 10.3443 12.4192 10.3389C12.4465 10.3336 12.4724 10.3223 12.4956 10.3057C12.5187 10.2891 12.5386 10.2675 12.554 10.2424ZM12.3096 10.0267C12.3181 10.0109 12.3297 9.9971 12.3434 9.98634C12.3571 9.97559 12.3726 9.96808 12.3891 9.96426C12.4056 9.96044 12.4226 9.9604 12.4391 9.96415C12.4556 9.96791 12.4712 9.97537 12.4849 9.98607C12.5089 10.0129 12.5225 10.049 12.5225 10.0866C12.5225 10.1241 12.5089 10.1603 12.4849 10.1871C12.4761 10.2027 12.4645 10.2161 12.4508 10.2267C12.4372 10.2373 12.4217 10.2447 12.4053 10.2486C12.389 10.2525 12.3721 10.2528 12.3556 10.2494C12.3392 10.246 12.3235 10.239 12.3096 10.2288C12.2861 10.2014 12.273 10.1652 12.2732 10.1276C12.2734 10.0899 12.2868 10.0539 12.3106 10.0267H12.3096Z" fill="#579944"/>
<path d="M3.68782 8.25119L3.64561 8.09677L3.60139 8.25119H3.45731L3.57363 8.347L3.52835 8.50142L3.64461 8.40448L3.75987 8.50032L3.71665 8.34586L3.83599 8.24892L3.68782 8.25119Z" fill="white"/>
<path d="M4.0905 10.3451C4.07609 10.3958 4.06169 10.4466 4.04729 10.4962H3.89697L4.01845 10.5931L3.97417 10.7442L4.09151 10.6506L4.20985 10.7464L4.16255 10.5942L4.27982 10.4984H4.13265L4.0905 10.3451Z" fill="white"/>
<path d="M3.52561 10.9773L3.48648 10.8499L3.45256 10.9773H3.33524L3.43096 11.0562L3.39798 11.1835L3.49163 11.1069L3.59457 11.1869L3.55544 11.0584L3.64808 10.9818L3.52561 10.9773Z" fill="white"/>
<path d="M4.60375 10.2071L4.58327 10.134L4.56172 10.2071H4.49088L4.54838 10.2531L4.52783 10.3262L4.58221 10.2812L4.63764 10.3262L4.61609 10.2531L4.67253 10.2071H4.60375Z" fill="white"/>
<path d="M5.05446 11.2581L5.15121 11.1781L5.25417 11.2604L5.21296 11.1319L5.31592 11.053H5.19443L5.15535 10.9245L5.11722 11.053H4.99478L5.09768 11.133L5.05446 11.2581Z" fill="white"/>
<path d="M4.96011 11.6441L4.93243 11.7453L5.01041 11.6823L5.08945 11.7464L5.05657 11.6441L5.13355 11.5812H5.04223L5.01041 11.48L4.98272 11.58H4.88007L4.96011 11.6441Z" fill="white"/>
<path d="M9.3109 7.78434L9.4303 7.68966L9.55172 7.78547L9.50436 7.63218L9.62169 7.53633H9.47452L9.42616 7.38077L9.38294 7.53523H9.2327L9.35518 7.63218L9.3109 7.78434Z" fill="white"/>
<path d="M11.2928 11.3347L11.4101 11.2366L11.5254 11.3314L11.4831 11.178L11.6005 11.0788H11.4564L11.4142 10.9289L11.3669 11.08H11.2218L11.337 11.1758L11.2928 11.3347Z" fill="white"/>
<path d="M12.0188 11.3116L12.0967 11.2486L12.1727 11.3082L12.146 11.2093L12.2229 11.143H12.1275L12.1009 11.043L12.0711 11.1441H11.9726L12.0464 11.2093L12.0188 11.3116Z" fill="white"/>
<path d="M11.5679 11.5599H11.4485L11.5432 11.6366L11.502 11.7629L11.6049 11.684L11.6986 11.7595L11.6667 11.6332L11.7696 11.5543H11.6502L11.6142 11.428L11.5679 11.5599Z" fill="white"/>
<path d="M10.2639 12.8605L10.3668 12.7838L10.4697 12.8582L10.4347 12.7342L10.5377 12.6553H10.4162L10.3812 12.5325L10.3391 12.6565H10.2176L10.3143 12.7331L10.2639 12.8605Z" fill="white"/>
<path d="M10.3735 13.1791L10.3469 13.0836L10.314 13.1802H10.2176L10.2925 13.2376L10.2596 13.3342L10.3407 13.2747L10.4176 13.332L10.389 13.2365L10.47 13.1769L10.3735 13.1791Z" fill="white"/>
<path d="M10.7972 12.4195L10.8752 12.3566L10.9501 12.4173L10.9234 12.3195L11.0045 12.2577H10.908L10.8803 12.1588L10.8464 12.2588H10.75L10.827 12.3172L10.7972 12.4195Z" fill="white"/>
<path d="M11.1865 12.1841L11.2894 12.1063L11.3831 12.1807L11.3511 12.0567L11.454 11.9789H11.3336L11.2986 11.8539L11.2596 11.9801H11.1392L11.2338 12.0556L11.1865 12.1841Z" fill="white"/>
<path d="M10.2767 12.328L10.3557 12.2662L10.4368 12.3257L10.407 12.2269L10.4881 12.1651H10.3855L10.3567 12.0662L10.326 12.1662H10.2295L10.3065 12.2257L10.2767 12.328Z" fill="white"/>
<path d="M5.74755 9.65002L5.85045 9.57L5.95334 9.65002L5.91527 9.51813L6.01823 9.43811H5.89366L5.8566 9.30734L5.8196 9.43811H5.69604L5.799 9.51813L5.74755 9.65002Z" fill="white"/>
<path d="M9.15846 9.12763L9.23951 9.06131L9.32062 9.12763L9.2898 9.0231L9.36985 8.95795H9.26726L9.23851 8.85455L9.20769 8.95795H9.1051L9.18515 9.02424L9.15846 9.12763Z" fill="white"/>
<path d="M7.87012 11.6243L7.82376 11.4732L7.77747 11.6243H7.62823L7.74864 11.7201L7.70235 11.8734L7.82376 11.7787L7.9421 11.8734L7.89788 11.7189L8.01929 11.6243H7.87012Z" fill="white"/>
<path d="M8.32691 10.7827L8.4298 10.7027L8.53275 10.7827L8.49362 10.6564L8.59657 10.5764H8.47301L8.43495 10.4456L8.39381 10.5764H8.26617L8.36912 10.6564L8.32691 10.7827Z" fill="white"/>
<path d="M7.72372 10.3004L7.8267 10.2204L7.92962 10.3004L7.88947 10.1708L7.99238 10.0897H7.86685L7.82978 9.96231L7.79064 10.0897H7.66403L7.76695 10.1697L7.72372 10.3004Z" fill="white"/>
<path d="M7.22182 10.7526L7.30293 10.6885L7.38398 10.7526L7.35216 10.6492L7.43221 10.5862H7.32961L7.29879 10.4828L7.27005 10.5862H7.16745L7.2475 10.6492L7.22182 10.7526Z" fill="white"/>
<path d="M7.50806 11.0907L7.56556 11.0457L7.62099 11.0918L7.60144 11.0176L7.65788 10.9726H7.58917L7.56656 10.8996L7.54401 10.9726H7.47217L7.53067 11.0187L7.50806 11.0907Z" fill="white"/>
<path d="M9.31005 12.7977H9.18863L9.28536 12.8732L9.24422 12.9927L9.34711 12.9172L9.44283 12.9916L9.40885 12.8721L9.51174 12.7965H9.39032L9.35226 12.6703L9.31005 12.7977Z" fill="white"/>
<path d="M9.71052 12.5076L9.7895 12.4469L9.86648 12.5054L9.8398 12.4076L9.91985 12.3446H9.81719L9.7885 12.2457L9.75668 12.3457H9.65402L9.73407 12.4076L9.71052 12.5076Z" fill="white"/>
<path d="M8.87431 12.3902L8.95336 12.3272L9.03342 12.389L9.00366 12.289L9.08265 12.2283H8.98005L8.9503 12.1283L8.91847 12.2283H8.82608L8.90407 12.289L8.87431 12.3902Z" fill="white"/>
<path d="M5.65291 12.2845L5.77025 12.1932L5.88959 12.2879L5.8433 12.1368L5.96064 12.0466H5.81447L5.7661 11.8933L5.72182 12.0455H5.57672L5.69613 12.138L5.65291 12.2845Z" fill="white"/>
<path d="M7.83954 13.3815L7.82519 13.3354L7.80979 13.3815H7.75949L7.80158 13.4107L7.78617 13.4579L7.82519 13.4298L7.86415 13.4579L7.84874 13.4107L7.88776 13.3815H7.83954Z" fill="white"/>
</svg>
